{"title":"Cowboys and Aliens(2011)MP-4[DaScubaDude]","uid":12349796,"size":1172992000,"categoryP":"video","categoryS":"movies","magnet":"?xt=urn:btih:a9aa3c3e510c693ec66c175b4fa2d394960c3a33&amp;dn=Cowboys+and+Aliens%282011%29MP-4%5BDaScubaDude%5D&amp;tr=udp%3A%2F%2Ftracker.openbittorrent.com%3A80&amp;tr=udp%3A%2F%2Fopen.demonii.com%3A1337&amp;tr=udp%3A%2F%2Ftracker.coppersurfer.tk%3A6969&amp;tr=udp%3A%2F%2Fexodus.desync.com%3A6969","seeders":4,"leechers":0,"uploader":"dascuba","files":1,"time":1441404665,"description":"Cowboys &amp; Aliens (2011)\nPG-13  |  119 min  |  Action, Sci-Fi, Thriller  |  29 July 2011 (USA)\n6.0 Your rating:   -/10   Ratings: 6.0/10 from 160,887 users   Metascore: 50/100 \nReviews: 482 user | 439 critic | 41 from Metacritic.com\nA spaceship arrives in Arizona, 1873, to take over the Earth, starting with the Wild West region. A posse of cowboys and natives are all that stand in their way.\n\nDirector: Jon Favreau\nWriters: Roberto Orci (screenplay), Alex Kurtzman (screenplay), 7 more credits Â»\nStars: Daniel Craig, Harrison Ford, Olivia Wilde\n\nGeneral\nComplete name                            : C:UsersbillVideosWinXVideosCowboys And AliensCOWBOYS_AND_ALIENS_Title8.mp4\nFormat                                   : MPEG-4\nFormat profile                           : Base Media\nCodec ID                                 : isom\nFile size                                : 1.09 GiB\nDuration                                 : 1h 58mn\nOverall bit rate                         : 1 323 Kbps\nMovie name                               : COWBOYS_AND_ALIENS_Title8\nWriting application                      : Lavf54.6.100\n\nVideo\nID                                       : 1\nFormat                                   : AVC\nFormat/Info                              : Advanced Video Codec\nFormat profile                           : Baseline@L3\nFormat settings, CABAC                   : No\nFormat settings, ReFrames                : 6 frames\nFormat settings, GOP                     : M=1, N=60\nCodec ID                                 : avc1\nCodec ID/Info                            : Advanced Video Coding\nDuration                                 : 1h 58mn\nBit rate                                 : 1 189 Kbps\nWidth                                    : 720 pixels\nHeight                                   : 404 pixels\nDisplay aspect ratio                     : 16:9\nFrame rate mode                          : Constant\nFrame rate                               : 29.970 fps\nColor space                              : YUV\nChroma subsampling                       : 4:2:0\nBit depth                                : 8 bits\nScan type                                : Progressive\nBits/(Pixel*Frame)                       : 0.136\nStream size                              : 1 005 MiB (90%)\n\nAudio\nID                                       : 2\nFormat                                   : AAC\nFormat/Info                              : Advanced Audio Codec\nFormat profile                           : LC\nCodec ID                                 : 40\nDuration                                 : 1h 58mn\nBit rate mode                            : Constant\nBit rate                                 : 128 Kbps\nChannel(s)                               : 2 channels\nChannel positions                        : Front: L R\nSampling rate                            : 44.1 KHz\nCompression mode                         : Lossy\nStream size                              : 108 MiB (10%)","torrent":{"xt":"urn:btih:a9aa3c3e510c693ec66c175b4fa2d394960c3a33","amp;dn":"Cowboys+and+Aliens%282011%29MP-4%5BDaScubaDude%5D","amp;tr":["udp%3A%2F%2Ftracker.openbittorrent.com%3A80","udp%3A%2F%2Fopen.demonii.com%3A1337","udp%3A%2F%2Ftracker.coppersurfer.tk%3A6969","udp%3A%2F%2Fexodus.desync.com%3A6969"],"infoHash":"a9aa3c3e510c693ec66c175b4fa2d394960c3a33","infoHashBuffer":{"type":"Buffer","data":[169,170,60,62,81,12,105,62,198,108,23,91,79,162,211,148,150,12,58,51]},"announce":[],"urlList":[]}}